<?xml version="1.0" encoding="utf-8"?>
<!-- Generator: Adobe Illustrator 16.0.0, SVG Export Plug-In . SVG Version: 6.00 Build 0)  -->
<!DOCTYPE svg PUBLIC "-//W3C//DTD SVG 1.1//EN" "http://www.w3.org/Graphics/SVG/1.1/DTD/svg11.dtd">
<svg version="1.1" id="Ebene_1" xmlns="http://www.w3.org/2000/svg" xmlns:xlink="http://www.w3.org/1999/xlink" x="0px" y="0px"
	 width="800px" height="500px" viewBox="0 0 800 500" enable-background="new 0 0 800 500" xml:space="preserve">
<g>
	<polygon fill-rule="evenodd" clip-rule="evenodd" fill="#FFED00" points="148.705,448.479 719.972,448.479 719.972,335.893 
		148.705,335.893 148.705,448.479 	"/>
	<polygon fill-rule="evenodd" clip-rule="evenodd" stroke="#000000" stroke-width="0.1814" stroke-miterlimit="22.9256" points="
		148.377,285.563 719.986,283.713 719.986,336.057 148.377,335.791 148.377,285.563 	"/>
	
		<path fill-rule="evenodd" clip-rule="evenodd" fill="#007BC3" stroke="#000000" stroke-width="2.3806" stroke-miterlimit="22.9256" d="
		M682.878,231.639c0.264-21.941-5.023-49.964-28.022-65.562c-20.619-14.011-51.285-11.896-60.802-11.896h-50.493
		c-11.367,0-56.839-1.322-71.642,13.747c-20.886,21.148-24.85,42.297-24.85,67.939v10.046c0.265,21.943,3.437,47.85,20.62,60.538
		c14.805,11.104,43.091,16.919,61.066,18.241l58.16,3.701c5.552,0.529,16.918,1.322,22.999,6.873
		c7.402,6.875,6.08,16.127,6.08,20.355v5.816c0,6.081-1.85,11.369-6.08,15.598c-7.403,7.402-18.769,5.816-30.93,5.816h-17.447
		c-4.759,0-29.345,1.851-37.274-11.367c-2.645-4.495-4.23-7.932-4.23-13.749v-11.63H447.07v16.391
		c0,25.907,2.643,47.584,23.527,62.652c28.287,20.091,60.275,15.863,76.137,15.863h31.193c27.23,0,68.472,2.906,94.112-18.242
		c21.149-17.977,20.886-41.505,20.886-60.01l-0.267-14.539c0-23-5.285-47.585-25.113-63.976
		c-12.425-10.575-26.965-12.162-44.941-13.747l-72.169-5.287c-8.46-0.527-15.597,0.265-21.679-5.286
		c-5.815-5.554-5.815-10.84-6.079-18.242v-5.022c0.264-7.402,1.587-11.896,6.609-18.241c5.285-5.816,26.435-6.345,31.458-6.345
		h11.102c12.426,0.264,25.645-0.793,31.725,8.195c3.172,4.759,3.7,8.46,3.7,14.275v9.781h75.607V231.639L682.878,231.639z"/>
	
		<path fill-rule="evenodd" clip-rule="evenodd" fill="#CFE8FA" stroke="#000000" stroke-width="2.3806" stroke-miterlimit="22.9256" d="
		M466.53,263.34c0-16.391-3.702-37.011-20.621-48.378c-15.068-10.574-37.803-8.988-44.676-8.988h-37.275
		c-8.195,0-42.034-0.794-52.872,10.31c-15.333,15.598-18.241,31.195-18.241,49.965v7.402c0.264,16.125,2.643,35.424,15.068,44.676
		c11.104,8.195,31.987,12.689,45.206,13.483l42.826,2.643c4.23,0.529,12.426,1.059,16.92,5.022
		c5.551,5.287,4.494,11.897,4.494,15.069v4.229c0,4.76-1.321,8.459-4.494,11.632c-5.288,5.287-13.748,4.23-22.736,4.23h-12.953
		c-3.437,0-21.413,1.32-27.494-8.46c-1.85-3.173-3.172-5.816-3.172-10.046v-8.459h-53.665v12.159c0,19.035,1.85,34.896,17.183,46
		c20.884,14.805,44.413,11.896,56.309,11.896h22.999c20.092,0,50.229,2.116,68.998-13.481
		c15.597-13.219,15.333-30.667,15.333-44.414v-10.838c0-16.918-3.966-34.896-18.504-47.056c-9.254-7.667-20.092-8.989-33.046-10.047
		l-53.136-3.966c-6.08-0.527-11.368,0.266-15.862-3.964c-4.494-3.965-4.494-7.931-4.494-13.482v-3.438
		c0-5.551,1.057-8.987,4.759-13.482c3.965-4.493,19.562-4.757,23.264-4.757h8.194c9.253,0,19.035-0.529,23.265,6.08
		c2.379,3.437,2.907,6.08,2.907,10.574v7.137h55.517V263.34L466.53,263.34z"/>
	<polygon fill-rule="evenodd" clip-rule="evenodd" stroke="#000000" stroke-width="0.1814" stroke-miterlimit="22.9256" points="
		148.705,51.402 80.015,51.402 80.015,448.598 148.705,448.598 148.705,51.402 	"/>
	<polygon fill-rule="evenodd" clip-rule="evenodd" stroke="#000000" stroke-width="0.1814" stroke-miterlimit="22.9256" points="
		286.292,205.167 217.603,205.167 217.603,417.028 286.292,417.028 286.292,205.167 	"/>
</g>
</svg>
